<svg xmlns="http://www.w3.org/2000/svg" xmlns:xlink="http://www.w3.org/1999/xlink" viewBox="0 0 93.63 100.88"><defs><style>.cls-1{fill:url(#未命名漸層_9);}</style><linearGradient id="未命名漸層_9" x1="-100.35" y1="50.44" x2="303.4" y2="50.44" gradientUnits="userSpaceOnUse"><stop offset="0.3" stop-color="#f1fb81"/><stop offset="0.35" stop-color="#e0fb8d"/><stop offset="0.44" stop-color="#c6fb9e"/><stop offset="0.54" stop-color="#b1fbac"/><stop offset="0.65" stop-color="#a3fbb6"/><stop offset="0.78" stop-color="#9bfbbb"/><stop offset="1" stop-color="#98fbbd"/></linearGradient></defs><g id="圖層_2" data-name="圖層 2"><g id="圖層_6" data-name="圖層 6"><path class="cls-1" d="M27.47,62.91a17.87,17.87,0,0,0,6.62-10.28c1.32-5.92-2.59-12.34-5.81-17.06s-6.68-9.43-9.81-14.23c-2.35-3.6-5.56-9.43-3.38-13.78a6.48,6.48,0,0,1,1.77-2C22.75.62,28.88,1.09,36,.81,39.69.66,43.34.23,47,0c11.09-.6,27.44,6.88,31.8,17.78,1.81,4.5.41,6.4.41,6.4L68.51,37.06c3.59-2.4,11.63-8,15.77-4.78,3.11,2.4,4.15,6.89,5.17,10.46,3.25,11.39,7.27,24.41.5,35.35-2.7,4.37-6.68,7.71-10.19,11.4-4.07,4.27-8.89,10.56-15.2,11.31-8.31,1-10.48-7.12-12.51-13.25q-2.29-6.94-4.42-13.92C45.82,67.74,40.13,60.4,33,63.22c-3.52,1.4-6.88,4.63-9.93,6.89q-5,3.75-10,7.57c-.8.61-11.14,9.33-11.64,9L0,85.59Z"/></g></g></svg>