<svg xmlns="http://www.w3.org/2000/svg" xmlns:xlink="http://www.w3.org/1999/xlink" viewBox="0 0 178.23 77.88"><defs><style>.cls-1{isolation:isolate;}.cls-2{fill:url(#未命名漸層_9);}.cls-3{mix-blend-mode:color-dodge;}.cls-4{fill:url(#未命名漸層_41);}.cls-5{fill:url(#未命名漸層_41-2);}.cls-6{fill:url(#未命名漸層_41-3);}.cls-7{fill:url(#未命名漸層_41-4);}.cls-8{fill:url(#未命名漸層_41-5);}.cls-9{fill:url(#未命名漸層_41-6);}.cls-10{fill:url(#未命名漸層_41-7);}.cls-11{fill:url(#未命名漸層_41-8);}.cls-12{fill:url(#未命名漸層_41-9);}.cls-13{fill:url(#未命名漸層_41-10);}.cls-14{fill:url(#未命名漸層_41-11);}.cls-15{fill:url(#未命名漸層_41-12);}.cls-16{fill:url(#未命名漸層_41-13);}</style><linearGradient id="未命名漸層_9" x1="-56.41" y1="-83.14" x2="271.65" y2="-83.14" gradientTransform="translate(-9.37 136.16) rotate(-13.17)" gradientUnits="userSpaceOnUse"><stop offset="0.3" stop-color="#f1fb81"/><stop offset="0.35" stop-color="#e0fb8d"/><stop offset="0.44" stop-color="#c6fb9e"/><stop offset="0.54" stop-color="#b1fbac"/><stop offset="0.65" stop-color="#a3fbb6"/><stop offset="0.78" stop-color="#9bfbbb"/><stop offset="1" stop-color="#98fbbd"/></linearGradient><linearGradient id="未命名漸層_41" x1="34.5" y1="45.88" x2="44.52" y2="45.88" gradientUnits="userSpaceOnUse"><stop offset="0.15" stop-color="#52fb81"/><stop offset="0.2" stop-color="#68fb82"/><stop offset="0.29" stop-color="#88fb84"/><stop offset="0.39" stop-color="#a2fb85"/><stop offset="0.49" stop-color="#b7fb86"/><stop offset="0.61" stop-color="#c5fb86"/><stop offset="0.76" stop-color="#cdfb87"/><stop offset="1" stop-color="#d0fb87"/></linearGradient><linearGradient id="未命名漸層_41-2" x1="49.35" y1="48.45" x2="60.85" y2="48.45" xlink:href="#未命名漸層_41"/><linearGradient id="未命名漸層_41-3" x1="62.22" y1="43.34" x2="67.71" y2="43.34" xlink:href="#未命名漸層_41"/><linearGradient id="未命名漸層_41-4" x1="69.11" y1="45.88" x2="77.95" y2="45.88" xlink:href="#未命名漸層_41"/><linearGradient id="未命名漸層_41-5" x1="79.63" y1="45.88" x2="88.23" y2="45.88" xlink:href="#未命名漸層_41"/><linearGradient id="未命名漸層_41-6" x1="89.63" y1="45.88" x2="98.48" y2="45.88" xlink:href="#未命名漸層_41"/><linearGradient id="未命名漸層_41-7" x1="104.41" y1="45.88" x2="114.33" y2="45.88" xlink:href="#未命名漸層_41"/><linearGradient id="未命名漸層_41-8" x1="115.36" y1="42.9" x2="123.74" y2="42.9" xlink:href="#未命名漸層_41"/><linearGradient id="未命名漸層_41-9" x1="126.21" y1="47.28" x2="136.27" y2="47.28" xlink:href="#未命名漸層_41"/><linearGradient id="未命名漸層_41-10" x1="136.74" y1="45.75" x2="144.87" y2="45.75" xlink:href="#未命名漸層_41"/><linearGradient id="未命名漸層_41-11" x1="145.62" y1="45.88" x2="154.46" y2="45.88" xlink:href="#未命名漸層_41"/><linearGradient id="未命名漸層_41-12" x1="156.14" y1="45.88" x2="164.99" y2="45.88" xlink:href="#未命名漸層_41"/><linearGradient id="未命名漸層_41-13" x1="166.38" y1="45.79" x2="178.23" y2="45.79" xlink:href="#未命名漸層_41"/></defs><g class="cls-1"><g id="圖層_2" data-name="圖層 2"><g id="基本資訊"><path class="cls-2" d="M20.19,54.25a14.55,14.55,0,0,0,3.34-9.35c-.06-4.93-4.34-9.29-7.76-12.43s-7-6.22-10.4-9.44C2.85,20.62-.77,16.6.15,12.76a5.4,5.4,0,0,1,1-1.94c3.76-5,8.69-5.73,14.29-7.28,2.87-.8,5.68-1.81,8.54-2.65,8.66-2.53,23,.36,28.45,8.18,2.26,3.22,1.51,5,1.51,5L47.87,26.2c2.4-2.56,7.73-8.46,11.6-6.7,2.9,1.32,4.55,4.69,6,7.32,4.69,8.41,10.27,18,6.94,27.87-1.33,4-3.85,7.34-6,10.91-2.43,4.13-5.08,10-9.93,11.76-6.39,2.32-9.61-3.69-12.35-8.17Q41.11,64.13,38.12,59c-2.51-4.32-8.37-9.08-13.48-5.53-2.53,1.76-4.59,4.93-6.58,7.29-2.2,2.6-4.37,5.22-6.54,7.85C11,69.24,4.44,78.05,4,77.85l-1.32-.57Z"/><g class="cls-3"><path class="cls-4" d="M42.47,48.9c0,.93.28,1.06.65,1.06s.75-.39,1.07-1.55c0-.11.07-.16.18-.16a.14.14,0,0,1,.15.16l0,.13c-.31,1.48-1,2.24-2.48,2.24A1.58,1.58,0,0,1,40.32,49h-.13a2.87,2.87,0,0,1-3,2c-1.42,0-2.65-.69-2.65-2.2,0-1.75,1.66-2.69,5.64-3.08V43.86c0-2.07-.92-2.61-2-2.61s-1.76.71-1.76,1.1c0,.15.08.2.25.24a1,1,0,0,1,.84,1,1.17,1.17,0,0,1-1.27,1.08,1.14,1.14,0,0,1-1.14-1.21c0-1.46,1.79-2.69,3.67-2.69,2.32,0,3.7,1.25,3.7,4ZM40.14,46c-2.35.2-3.42,1-3.42,2.57a1.43,1.43,0,0,0,1.46,1.53c1.1,0,2-.91,2-2.39Z"/><path class="cls-5" d="M53.25,43.52a3.26,3.26,0,0,1,3.16-2.72,4.45,4.45,0,0,1,4.44,4.74c0,3.19-2.26,5.43-4.78,5.43a2.84,2.84,0,0,1-2.86-2.3H53.1a12.57,12.57,0,0,1,.23,2.56v2.09c0,2.3.18,2.35,2.12,2.41a.18.18,0,0,1,.21.19c0,.09-.06.18-.21.18l-1.6-.05c-.64,0-1.44,0-1.7,0s-.84,0-1.27,0-.86.05-1.12.05a.19.19,0,1,1,0-.37c1.12-.06,1.21-.13,1.21-1.44V43c0-1.23,0-1.43-1.1-1.43h-.31a.19.19,0,1,1,0-.38,14.42,14.42,0,0,0,3.09-.28,3.13,3.13,0,0,1,.51-.07.19.19,0,0,1,.22.2,3.87,3.87,0,0,1-.07.6,9.42,9.42,0,0,0-.15,1.9Zm.08,3c0,3.19,1.28,4.05,2.59,4.05,1.55,0,2.39-1.7,2.39-4.93,0-2.26-.69-4.33-2.41-4.33-1.32,0-2.57,1.46-2.57,4.65Z"/><path class="cls-6" d="M62.75,41.55a.19.19,0,1,1,0-.38A17.07,17.07,0,0,0,65.88,41a.78.78,0,0,1,.21,0,.2.2,0,0,1,.2.23,3.34,3.34,0,0,1,0,.39,14.91,14.91,0,0,0-.12,2V49c0,1.29.06,1.35,1.35,1.42a.19.19,0,0,1,.22.19c0,.09-.07.18-.22.18l-1.2-.05-1.32,0-1.25,0c-.53,0-1,.05-1.31.05a.18.18,0,0,1-.19-.18.18.18,0,0,1,.19-.19c1.31-.07,1.38-.11,1.38-1.42V43.11c0-1.36,0-1.56-.73-1.56Zm3.67-4.28a1.38,1.38,0,0,1-1.36,1.38,1.38,1.38,0,1,1,1.36-1.38Z"/><path class="cls-7" d="M71.72,44.76a9.28,9.28,0,0,0-.06,1.06,6.27,6.27,0,0,0,1.1,4.09,2.09,2.09,0,0,0,1.54.63,3.58,3.58,0,0,0,3.24-2.11.21.21,0,0,1,.17-.11.2.2,0,0,1,.22.19.29.29,0,0,1,0,.15,4.31,4.31,0,0,1-4,2.31,4.78,4.78,0,0,1-4.78-4.8A5.13,5.13,0,0,1,74,40.8,3.65,3.65,0,0,1,78,44.48v.28Zm3.42-.38c.41,0,.46-.09.46-.46A3.72,3.72,0,0,0,75,41.75a1.47,1.47,0,0,0-1.17-.58,1.45,1.45,0,0,0-1.29.62,5.91,5.91,0,0,0-.8,2.59Z"/><path class="cls-8" d="M87.39,41.86a2.07,2.07,0,0,1,.53,1.35c0,.95-.43,1.62-1.37,1.62a1,1,0,1,1,0-2c.13,0,.24-.08.24-.28,0-.69-.8-1.33-1.86-1.33a2,2,0,0,0-1.66.75,6.3,6.3,0,0,0-1.1,4c0,2.09.43,3.4,1.26,4.11a1.94,1.94,0,0,0,1.4.5c1.33,0,2.19-.6,3-2.35A.2.2,0,0,1,88,48a.19.19,0,0,1,.2.21.79.79,0,0,1,0,.13A3.7,3.7,0,0,1,84.48,51a4.52,4.52,0,0,1-4.85-4.68c0-3.4,2.33-5.47,5.09-5.47A3.54,3.54,0,0,1,87.39,41.86Z"/><path class="cls-9" d="M92.24,44.76c0,.35,0,.7,0,1.06a6.21,6.21,0,0,0,1.1,4.09,2.05,2.05,0,0,0,1.53.63,3.58,3.58,0,0,0,3.24-2.11.22.22,0,0,1,.17-.11.21.21,0,0,1,.23.19.23.23,0,0,1,0,.15,4.3,4.3,0,0,1-4,2.31,4.78,4.78,0,0,1-4.78-4.8,5.13,5.13,0,0,1,4.91-5.37,3.65,3.65,0,0,1,3.94,3.68v.28Zm3.42-.38c.41,0,.46-.09.46-.46a3.79,3.79,0,0,0-.57-2.17,1.57,1.57,0,0,0-2.47,0,5.91,5.91,0,0,0-.8,2.59Z"/><path class="cls-10" d="M114.33,45.89a5,5,0,1,1-5-5.09A5.12,5.12,0,0,1,114.33,45.89Zm-2.55,0a9.21,9.21,0,0,0-.54-3.34,2,2,0,0,0-3.74,0,10.57,10.57,0,0,0,0,6.67,2,2,0,0,0,3.74,0A9.13,9.13,0,0,0,111.78,45.89Z"/><path class="cls-11" d="M117.07,40.28c0-3.14,1.35-5.27,4.07-5.27,1.38,0,2.6.81,2.6,2,0,1-.47,1.38-1.2,1.38a1,1,0,0,1-1.16-1.06,1.08,1.08,0,0,1,1.12-1.08c.19,0,.25,0,.25-.09,0-.28-.68-.64-1.24-.64-1.43,0-2.08.93-2.08,3.32v2.37H122a.19.19,0,1,1,0,.38h-2.57V49c0,1.35,0,1.36,1.75,1.42a.18.18,0,0,1,.2.19.17.17,0,0,1-.2.18l-1.38-.05c-.58,0-1.25,0-1.55,0s-1,0-1.87.07l-.52,0a.19.19,0,1,1,0-.37c1.12,0,1.21,0,1.21-1.34V41.55h-1.51a.19.19,0,0,1-.2-.19.2.2,0,0,1,.22-.19h1.49Z"/><path class="cls-12" d="M132.07,49.57c2.62,0,3.92,1,3.92,2.78,0,2.35-2.4,3.92-5.11,3.92-2.93,0-4.67-1-4.67-2.5,0-1.21.92-2,2.62-2.2a2.07,2.07,0,0,1-1.91-2.07,2.64,2.64,0,0,1,1.87-2.43,3.09,3.09,0,0,1-1.44-2.56,3.68,3.68,0,0,1,3.87-3.71,4.44,4.44,0,0,1,.93.11c.3-1.34,1.23-2.61,2.61-2.61a1.34,1.34,0,0,1,1.51,1.27,1.13,1.13,0,0,1-1.15,1.23.91.91,0,0,1-1-.93,1,1,0,0,1,.67-1c.11,0,.15-.06.15-.13s-.08-.1-.24-.1c-1,0-1.93.92-2.24,2.35A3.36,3.36,0,0,1,135,44.08a3.68,3.68,0,0,1-3.86,3.72,4.07,4.07,0,0,1-2-.54,1.22,1.22,0,0,0-.73,1.13c0,.62.47,1.18,2.14,1.18Zm-2.33,2.07a1.28,1.28,0,0,0-.91.28,2.14,2.14,0,0,0-.69,1.7c0,1.34.91,2.28,3,2.28,1.89,0,3.12-1.16,3.12-2.47s-1.16-1.79-2.91-1.79Zm-.17-7.28a4.54,4.54,0,0,0,.53,2.49,1.24,1.24,0,0,0,1.08.56,1.19,1.19,0,0,0,1-.47,4.85,4.85,0,0,0,.56-2.71,4.77,4.77,0,0,0-.54-2.46,1.21,1.21,0,0,0-1.07-.58,1,1,0,0,0-1,.56A5.25,5.25,0,0,0,129.57,44.36Z"/><path class="cls-13" d="M140.38,43.52c.35-1.66,1.38-2.8,2.78-2.8,1.12,0,1.71.64,1.71,1.4a1.32,1.32,0,0,1-1.34,1.44,1.06,1.06,0,0,1-1.16-1.08,1.16,1.16,0,0,1,.79-1.12c.13,0,.16-.08.16-.15s-.07-.11-.28-.11c-1.26,0-2.46,1.32-2.46,3.95v4c0,1.21,0,1.27,1.76,1.34a.18.18,0,0,1,.2.19.18.18,0,0,1-.2.18c-.55,0-1.09,0-1.65-.05l-1.28,0-1.2,0c-.48,0-1,.05-1.19.05a.19.19,0,1,1,0-.37c1.12-.07,1.21-.11,1.21-1.34V42.93c0-1.33-.09-1.38-1-1.38h-.32a.19.19,0,1,1,0-.38,11.35,11.35,0,0,0,3.21-.31.42.42,0,0,1,.19,0,.19.19,0,0,1,.2.2,4.23,4.23,0,0,1-.11.64,16.78,16.78,0,0,0-.22,1.86Z"/><path class="cls-14" d="M148.23,44.76a9.28,9.28,0,0,0-.06,1.06,6.27,6.27,0,0,0,1.1,4.09,2.08,2.08,0,0,0,1.53.63,3.6,3.6,0,0,0,3.25-2.11.21.21,0,0,1,.17-.11.2.2,0,0,1,.22.19.29.29,0,0,1,0,.15,4.32,4.32,0,0,1-4,2.31,4.78,4.78,0,0,1-4.77-4.8,5.13,5.13,0,0,1,4.91-5.37,3.65,3.65,0,0,1,3.93,3.68v.28Zm3.41-.38c.42,0,.47-.09.47-.46a3.72,3.72,0,0,0-.58-2.17,1.47,1.47,0,0,0-1.17-.58,1.45,1.45,0,0,0-1.29.62,5.91,5.91,0,0,0-.8,2.59Z"/><path class="cls-15" d="M158.75,44.76c0,.35-.05.7-.05,1.06a6.21,6.21,0,0,0,1.1,4.09,2.05,2.05,0,0,0,1.53.63,3.58,3.58,0,0,0,3.24-2.11.22.22,0,0,1,.17-.11.21.21,0,0,1,.23.19.23.23,0,0,1,0,.15,4.3,4.3,0,0,1-4,2.31,4.78,4.78,0,0,1-4.78-4.8,5.13,5.13,0,0,1,4.91-5.37A3.65,3.65,0,0,1,165,44.48v.28Zm3.42-.38c.41,0,.46-.09.46-.46a3.79,3.79,0,0,0-.57-2.17,1.57,1.57,0,0,0-2.47,0,5.91,5.91,0,0,0-.8,2.59Z"/><path class="cls-16" d="M176.79,49.07c0,1.27.1,1.27,1.24,1.34a.19.19,0,1,1,0,.37c-.25,0-.73,0-1.22-.05s-.91,0-1.19,0-.75,0-1.21,0-.94.05-1.18.05a.19.19,0,1,1,0-.37c1.12-.07,1.21-.07,1.21-1.34V44.25c0-2-.69-2.83-2-2.83s-2.26,1.23-2.26,3v4.61c0,1.25,0,1.27,1.38,1.34a.18.18,0,0,1,.21.19c0,.09-.06.18-.21.18l-1.27-.05-1.29,0-1.19,0c-.48,0-.95.05-1.19.05a.19.19,0,1,1,0-.37c1.12-.07,1.21-.07,1.21-1.34v-6c0-1.36,0-1.56-.73-1.56h-.32a.19.19,0,1,1,0-.38,8.47,8.47,0,0,0,3-.31.53.53,0,0,1,.17,0,.19.19,0,0,1,.2.2,4.23,4.23,0,0,1-.11.64,16.78,16.78,0,0,0-.22,1.86h.11a3.23,3.23,0,0,1,3.56-2.72,3.07,3.07,0,0,1,3.34,3.38Z"/></g></g></g></g></svg>