<svg xmlns="http://www.w3.org/2000/svg" xmlns:xlink="http://www.w3.org/1999/xlink" viewBox="0 0 163.86 101.86"><defs><style>.cls-1{fill:url(#未命名漸層_41);}.cls-2{fill:url(#未命名漸層_41-2);}.cls-3{fill:url(#未命名漸層_41-3);}.cls-4{fill:url(#未命名漸層_41-4);}.cls-5{fill:url(#未命名漸層_41-5);}.cls-6{fill:url(#未命名漸層_41-6);}.cls-7{fill:url(#未命名漸層_41-7);}.cls-8{fill:url(#未命名漸層_41-8);}.cls-9{fill:url(#未命名漸層_41-9);}</style><linearGradient id="未命名漸層_41" x1="9.62" y1="14.14" x2="67.22" y2="14.61" gradientUnits="userSpaceOnUse"><stop offset="0.15" stop-color="#52fb81"/><stop offset="0.2" stop-color="#68fb82"/><stop offset="0.29" stop-color="#88fb84"/><stop offset="0.39" stop-color="#a2fb85"/><stop offset="0.49" stop-color="#b7fb86"/><stop offset="0.61" stop-color="#c5fb86"/><stop offset="0.76" stop-color="#cdfb87"/><stop offset="1" stop-color="#d0fb87"/></linearGradient><linearGradient id="未命名漸層_41-2" x1="145.65" y1="9.71" x2="250.6" y2="10.56" gradientTransform="matrix(1, 0, 0, -1, -171.79, 20.02)" xlink:href="#未命名漸層_41"/><linearGradient id="未命名漸層_41-3" x1="18.22" y1="61.46" x2="77.79" y2="61.46" xlink:href="#未命名漸層_41"/><linearGradient id="未命名漸層_41-4" x1="44.39" y1="76.32" x2="64.13" y2="76.32" xlink:href="#未命名漸層_41"/><linearGradient id="未命名漸層_41-5" x1="73.65" y1="87.58" x2="97.1" y2="87.58" xlink:href="#未命名漸層_41"/><linearGradient id="未命名漸層_41-6" x1="104.07" y1="87.58" x2="126.6" y2="87.58" xlink:href="#未命名漸層_41"/><linearGradient id="未命名漸層_41-7" x1="133.1" y1="87.58" x2="156.55" y2="87.58" xlink:href="#未命名漸層_41"/><linearGradient id="未命名漸層_41-8" x1="101.88" y1="65.6" x2="149.63" y2="65.99" gradientTransform="matrix(-1, 0, 0, 1, 257.77, 0)" xlink:href="#未命名漸層_41"/><linearGradient id="未命名漸層_41-9" x1="60.17" y1="61.93" x2="146.97" y2="62.63" gradientTransform="translate(63.25)" xlink:href="#未命名漸層_41"/></defs><g id="圖層_2" data-name="圖層 2"><g id="基本資訊"><path class="cls-1" d="M28.92,19.8H24V17.51c0-4.8,3.28-8.69,7.32-8.69h5.14v2.06C36.43,15.81,33.07,19.8,28.92,19.8Z"/><path class="cls-2" d="M0,0H5.86A16.87,16.87,0,0,1,22.72,16.87V20a0,0,0,0,1,0,0H16.87A16.87,16.87,0,0,1,0,3.16V0A0,0,0,0,1,0,0Z" transform="translate(22.72 20.02) rotate(-180)"/><path class="cls-3" d="M19.57,101.61a1.36,1.36,0,0,1-1.35-1.5,101.1,101.1,0,0,0,.56-11.39V35.64a97.62,97.62,0,0,0-.55-11.59,1.36,1.36,0,0,1,1.35-1.5h8.66a1.36,1.36,0,0,1,1.35,1.35v3.26a1.35,1.35,0,0,0,2.3,1c4.87-4.71,10.65-6.81,18.68-6.81s14.44,2.38,19,7.06c5.4,5.4,8.21,13.4,8.21,23.06,0,18.49-10.6,30.13-27.43,30.13a28.57,28.57,0,0,1-15.68-4.37A20.42,20.42,0,0,1,31.93,75a1.35,1.35,0,0,0-2.27,1c0,1,0,2.11,0,3.63v8.93a96.83,96.83,0,0,0,.55,11.49,1.35,1.35,0,0,1-1.34,1.5Zm46.79-50.7c0-12.67-6.44-20.15-17.24-20.15C38,30.76,30,39.38,30,51.43c0,5.92,2.18,11.84,5.51,15.27a19.72,19.72,0,0,0,13.82,5.51C60,72.21,66.36,64.21,66.36,50.91Z"/><path class="cls-4" d="M56.46,97.45h7.67v3.72H52.05V77.94H44.39V74.23H56.46ZM45.67,58a6.11,6.11,0,0,1,1.5-4.5,6.22,6.22,0,0,1,4.5-2,6.83,6.83,0,0,1,5,2,6.11,6.11,0,0,1,1.5,4.5,5.4,5.4,0,0,1-1.5,4,7.19,7.19,0,0,1-5,2.5c-1.33,0-2.84-.82-4.5-2.5A5.4,5.4,0,0,1,45.67,58Z"/><path class="cls-5" d="M96.64,95.36v4q-6.27,2.55-10.22,2.55a12.45,12.45,0,0,1-9.06-3.94q-3.7-3.72-3.71-10.22,0-6.74,3.71-10.45a12.46,12.46,0,0,1,9.06-4,9.69,9.69,0,0,1,7.66,3.48q3,3,3,10.69v.92H78.29a9.38,9.38,0,0,0,2.56,7,7.91,7.91,0,0,0,6,2.79A20.42,20.42,0,0,0,96.64,95.36ZM78.76,85.14H92.23v-.69c0-2.48-.55-4.26-1.63-5.35a6.06,6.06,0,0,0-4.41-1.85,8.24,8.24,0,0,0-4.65,1.85Q79.46,80.74,78.76,85.14Z"/><path class="cls-6" d="M126.6,96.06v4.41a28.49,28.49,0,0,1-8.6,1.39,13.53,13.53,0,0,1-10-3.94,13.8,13.8,0,0,1-4-10.22,14.15,14.15,0,0,1,4.18-10.45,13,13,0,0,1,9.52-4,21,21,0,0,1,8.83,1.62v4.42a19.51,19.51,0,0,0-8.36-2.09A8.73,8.73,0,0,0,111.5,80,11.74,11.74,0,0,0,109,87.47a10.63,10.63,0,0,0,3,7.89,8.76,8.76,0,0,0,6.5,2.32A22.45,22.45,0,0,0,126.6,96.06Z"/><path class="cls-7" d="M156.09,95.36v4q-6.27,2.55-10.22,2.55a12.45,12.45,0,0,1-9.06-3.94q-3.7-3.72-3.71-10.22,0-6.74,3.71-10.45a12.46,12.46,0,0,1,9.06-4,9.72,9.72,0,0,1,7.67,3.48q3,3,3,10.69v.92H137.74a9.38,9.38,0,0,0,2.56,7,7.92,7.92,0,0,0,6,2.79A20.41,20.41,0,0,0,156.09,95.36ZM138.21,85.14h13.47v-.69c0-2.48-.55-4.26-1.63-5.35a6.06,6.06,0,0,0-4.41-1.85A8.24,8.24,0,0,0,141,79.1Q138.9,80.74,138.21,85.14Z"/><path class="cls-8" d="M139.89,70.29H144v-1.9c0-4-2.71-7.2-6.07-7.2h-4.26V62.9C133.66,67,136.45,70.29,139.89,70.29Z"/><path class="cls-9" d="M161.62,53.88h2.24a0,0,0,0,1,0,0v0a16.6,16.6,0,0,1-16.6,16.6H145a0,0,0,0,1,0,0v0A16.6,16.6,0,0,1,161.62,53.88Z"/></g></g></svg>